ffmpeg version 3.4.8-0ubuntu0.2 Copyright (c) 2000-2020 the FFmpeg developers
  built with gcc 7 (Ubuntu 7.5.0-3ubuntu1~18.04)
  configuration: --prefix=/usr --extra-version=0ubuntu0.2 --toolchain=hardened --libdir=/usr/lib/x86_64-linux-gnu --incdir=/usr/include/x86_64-linux-gnu --enable-gpl --disable-stripping --enable-avresample --enable-avisynth --enable-gnutls --enable-ladspa --enable-libass --enable-libbluray --enable-libbs2b --enable-libcaca --enable-libcdio --enable-libflite --enable-libfontconfig --enable-libfreetype --enable-libfribidi --enable-libgme --enable-libgsm --enable-libmp3lame --enable-libmysofa --enable-libopenjpeg --enable-libopenmpt --enable-libopus --enable-libpulse --enable-librubberband --enable-librsvg --enable-libshine --enable-libsnappy --enable-libsoxr --enable-libspeex --enable-libssh --enable-libtheora --enable-libtwolame --enable-libvorbis --enable-libvpx --enable-libwavpack --enable-libwebp --enable-libx265 --enable-libxml2 --enable-libxvid --enable-libzmq --enable-libzvbi --enable-omx --enable-openal --enable-opengl --enable-sdl2 --enable-libdc1394 --enable-libdrm --enable-libiec61883 --enable-chromaprint --enable-frei0r --enable-libopencv --enable-libx264 --enable-shared
  libavutil      55. 78.100 / 55. 78.100
  libavcodec     57.107.100 / 57.107.100
  libavformat    57. 83.100 / 57. 83.100
  libavdevice    57. 10.100 / 57. 10.100
  libavfilter     6.107.100 /  6.107.100
  libavresample   3.  7.  0 /  3.  7.  0
  libswscale      4.  8.100 /  4.  8.100
  libswresample   2.  9.100 /  2.  9.100
  libpostproc    54.  7.100 / 54.  7.100
Input #0, yuv4mpegpipe, from '../.././Samples/Netflix_Boat_4096x2160_60fps_10bit_420.y4m':
  Duration: 00:00:05.00, start: 0.000000, bitrate: 12740201 kb/s
    Stream #0:0: Video: rawvideo (Y3[11][10] / 0xA0B3359), yuv420p10le(progressive), 4096x2160, SAR 1:1 DAR 256:135, 60 fps, 60 tbr, 60 tbn, 60 tbc
Stream mapping:
  Stream #0:0 -> #0:0 (rawvideo (native) -> h264 (libx264))
Press [q] to stop, [?] for help
[libx264 @ 0x5578a04b5240] using SAR=1/1
[libx264 @ 0x5578a04b5240] using cpu capabilities: MMX2 SSE2Fast SSSE3 SSE4.2 AVX FMA3 BMI2 AVX2
[libx264 @ 0x5578a04b5240] profile High, level 5.2
[libx264 @ 0x5578a04b5240] 264 - core 152 r2854 e9a5903 - H.264/MPEG-4 AVC codec - Copyleft 2003-2017 - http://www.videolan.org/x264.html - options: cabac=1 ref=3 deblock=1:0:0 analyse=0x3:0x113 me=hex subme=7 psy=1 psy_rd=1.00:0.00 mixed_ref=1 me_range=16 chroma_me=1 trellis=1 8x8dct=1 cqm=0 deadzone=21,11 fast_pskip=1 chroma_qp_offset=-2 threads=6 lookahead_threads=1 sliced_threads=0 nr=0 decimate=1 interlaced=0 bluray_compat=0 constrained_intra=0 bframes=3 b_pyramid=2 b_adapt=1 b_bias=0 direct=1 weightb=1 open_gop=0 weightp=2 keyint=250 keyint_min=25 scenecut=40 intra_refresh=0 rc_lookahead=40 rc=crf mbtree=1 crf=23.0 qcomp=0.60 qpmin=0 qpmax=69 qpstep=4 ip_ratio=1.40 aq=1:1.00
Output #0, mov, to '/home/aleksandr/Pract/Samples/Netflix_Boat_4096x2160_60fps_10bit_420.y4m_tc/output_std3.mov':
  Metadata:
    encoder         : Lavf57.83.100
    Stream #0:0: Video: h264 (libx264) (avc1 / 0x31637661), yuv420p, 4096x2160 [SAR 1:1 DAR 256:135], q=-1--1, 60 fps, 15360 tbn, 60 tbc
    Metadata:
      encoder         : Lavc57.107.100 libx264
    Side data:
      cpb: bitrate max/min/avg: 0/0/0 buffer size: 0 vbv_delay: -1
frame=    5 fps=0.0 q=0.0 size=       0kB time=00:00:00.00 bitrate=N/A speed=   0x    frame=    8 fps=5.7 q=0.0 size=       0kB time=00:00:00.00 bitrate=N/A speed=   0x    frame=   11 fps=5.3 q=0.0 size=       0kB time=00:00:00.00 bitrate=N/A speed=   0x    frame=   13 fps=4.9 q=0.0 size=       0kB time=00:00:00.00 bitrate=N/A speed=   0x    frame=   16 fps=4.8 q=0.0 size=       0kB time=00:00:00.00 bitrate=N/A speed=   0x    frame=   19 fps=4.7 q=0.0 size=       0kB time=00:00:00.00 bitrate=N/A speed=   0x    frame=   22 fps=4.7 q=0.0 size=       0kB time=00:00:00.00 bitrate=N/A speed=   0x    frame=   25 fps=4.6 q=0.0 size=       0kB time=00:00:00.00 bitrate=N/A speed=   0x    frame=   28 fps=4.6 q=0.0 size=       0kB time=00:00:00.00 bitrate=N/A speed=   0x    frame=   30 fps=4.6 q=0.0 size=       0kB time=00:00:00.00 bitrate=N/A speed=   0x    frame=   32 fps=4.5 q=0.0 size=       0kB time=00:00:00.00 bitrate=N/A speed=   0x    frame=   34 fps=4.4 q=0.0 size=       0kB time=00:00:00.00 bitrate=N/A speed=   0x    frame=   36 fps=4.3 q=0.0 size=       0kB time=00:00:00.00 bitrate=N/A speed=   0x    frame=   38 fps=4.3 q=0.0 size=       0kB time=00:00:00.00 bitrate=N/A speed=   0x    frame=   41 fps=4.3 q=0.0 size=       0kB time=00:00:00.00 bitrate=N/A speed=   0x    frame=   44 fps=4.3 q=0.0 size=       0kB time=00:00:00.00 bitrate=N/A speed=   0x    frame=   47 fps=3.8 q=0.0 size=       0kB time=00:00:00.00 bitrate=N/A speed=   0x    frame=   49 fps=3.8 q=0.0 size=       0kB time=00:00:00.00 bitrate=N/A speed=   0x    frame=   52 fps=3.8 q=31.0 size=     768kB time=-00:00:00.01 bitrate=N/A speed=N/A    frame=   54 fps=3.8 q=31.0 size=     768kB time=00:00:00.01 bitrate=376030.6kbits/s speed=0.00119x    frame=   57 fps=3.9 q=31.0 size=    1024kB time=00:00:00.06 bitrate=125710.2kbits/s speed=0.00453x    frame=   60 fps=3.9 q=31.0 size=    1280kB time=00:00:00.11 bitrate=89830.1kbits/s speed=0.00759x    frame=   63 fps=3.9 q=31.0 size=    1280kB time=00:00:00.16 bitrate=62891.6kbits/s speed=0.0104x    frame=   66 fps=4.0 q=31.0 size=    1536kB time=00:00:00.21 bitrate=58058.8kbits/s speed=0.013x    frame=   69 fps=4.0 q=31.0 size=    1792kB time=00:00:00.26 bitrate=55037.8kbits/s speed=0.0154x    frame=   72 fps=4.0 q=31.0 size=    2048kB time=00:00:00.31 bitrate=52970.7kbits/s speed=0.0177x    frame=   75 fps=4.0 q=31.0 size=    2048kB time=00:00:00.36 bitrate=45748.7kbits/s speed=0.0198x    frame=   78 fps=4.0 q=31.0 size=    2304kB time=00:00:00.41 bitrate=45292.1kbits/s speed=0.0214x    frame=   81 fps=4.0 q=31.0 size=    2560kB time=00:00:00.46 bitrate=44933.3kbits/s speed=0.0233x    frame=   84 fps=4.1 q=31.0 size=    2816kB time=00:00:00.51 bitrate=44644.0kbits/s speed=0.0249x    frame=   87 fps=4.1 q=31.0 size=    2816kB time=00:00:00.56 bitrate=40705.2kbits/s speed=0.0265x    frame=   89 fps=4.1 q=31.0 size=    3072kB time=00:00:00.60 bitrate=41939.0kbits/s speed=0.0274x    frame=   92 fps=4.1 q=31.0 size=    3328kB time=00:00:00.65 bitrate=41939.3kbits/s speed=0.0289x    frame=   95 fps=4.1 q=31.0 size=    3328kB time=00:00:00.70 bitrate=38943.9kbits/s speed=0.0303x    frame=   98 fps=4.1 q=31.0 size=    3584kB time=00:00:00.75 bitrate=39143.8kbits/s speed=0.0316x    frame=  101 fps=4.1 q=31.0 size=    3840kB time=00:00:00.80 bitrate=39318.8kbits/s speed=0.0328x    frame=  102 fps=4.0 q=31.0 size=    3840kB time=00:00:00.81 bitrate=38516.4kbits/s speed=0.0323x    frame=  105 fps=4.1 q=31.0 size=    4096kB time=00:00:00.86 bitrate=38714.1kbits/s speed=0.0335x    frame=  108 fps=4.1 q=31.0 size=    4352kB time=00:00:00.91 bitrate=38890.2kbits/s speed=0.0346x    frame=  111 fps=4.1 q=31.0 size=    4352kB time=00:00:00.96 bitrate=36878.8kbits/s speed=0.0356x    frame=  114 fps=4.1 q=31.0 size=    4608kB time=00:00:01.01 bitrate=37127.8kbits/s speed=0.0365x    frame=  117 fps=4.1 q=31.0 size=    4864kB time=00:00:01.06 bitrate=37353.5kbits/s speed=0.0375x    frame=  120 fps=4.1 q=31.0 size=    5120kB time=00:00:01.11 bitrate=37559.0kbits/s speed=0.0385x    frame=  122 fps=4.1 q=31.0 size=    5120kB time=00:00:01.15 bitrate=36470.4kbits/s speed=0.0388x    frame=  124 fps=4.1 q=31.0 size=    5376kB time=00:00:01.18 bitrate=37215.3kbits/s speed=0.0389x    frame=  127 fps=4.1 q=31.0 size=    5376kB time=00:00:01.23 bitrate=35706.6kbits/s speed=0.0397x    frame=  130 fps=4.1 q=31.0 size=    5632kB time=00:00:01.28 bitrate=35949.6kbits/s speed=0.0405x    frame=  133 fps=4.1 q=31.0 size=    5888kB time=00:00:01.33 bitrate=36174.3kbits/s speed=0.0413x    frame=  136 fps=4.1 q=31.0 size=    6144kB time=00:00:01.38 bitrate=36382.8kbits/s speed=0.042x    frame=  139 fps=4.1 q=31.0 size=    6144kB time=00:00:01.43 bitrate=35113.7kbits/s speed=0.0427x    frame=  142 fps=4.2 q=31.0 size=    6400kB time=00:00:01.48 bitrate=35343.9kbits/s speed=0.0434x    frame=  145 fps=4.2 q=31.0 size=    6656kB time=00:00:01.53 bitrate=35559.1kbits/s speed=0.044x    frame=  148 fps=4.2 q=31.0 size=    6912kB time=00:00:01.58 bitrate=35760.7kbits/s speed=0.0446x    frame=  150 fps=4.2 q=31.0 size=    6912kB time=00:00:01.61 bitrate=35023.4kbits/s speed=0.0449x    frame=  153 fps=4.2 q=31.0 size=    7168kB time=00:00:01.66 bitrate=35230.9kbits/s speed=0.0455x    frame=  155 fps=4.2 q=31.0 size=    7168kB time=00:00:01.70 bitrate=34540.2kbits/s speed=0.0458x    frame=  158 fps=4.2 q=31.0 size=    7424kB time=00:00:01.75 bitrate=34751.7kbits/s speed=0.0463x    frame=  161 fps=4.2 q=31.0 size=    7680kB time=00:00:01.80 bitrate=34951.4kbits/s speed=0.0469x    frame=  164 fps=4.2 q=31.0 size=    7936kB time=00:00:01.85 bitrate=35140.4kbits/s speed=0.0474x    frame=  167 fps=4.2 q=31.0 size=    8192kB time=00:00:01.90 bitrate=35319.4kbits/s speed=0.0478x    frame=  170 fps=4.2 q=31.0 size=    8448kB time=00:00:01.95 bitrate=35489.2kbits/s speed=0.0483x    frame=  173 fps=4.2 q=31.0 size=    8704kB time=00:00:02.00 bitrate=35650.6kbits/s speed=0.0487x    frame=  176 fps=4.2 q=31.0 size=    8960kB time=00:00:02.05 bitrate=35804.0kbits/s speed=0.0491x    frame=  179 fps=4.2 q=31.0 size=    8960kB time=00:00:02.10 bitrate=34951.6kbits/s speed=0.0495x    frame=  182 fps=4.2 q=31.0 size=    9216kB time=00:00:02.15 bitrate=35114.2kbits/s speed=0.05x    frame=  185 fps=4.2 q=31.0 size=    9472kB time=00:00:02.20 bitrate=35269.4kbits/s speed=0.0504x    frame=  188 fps=4.2 q=31.0 size=    9728kB time=00:00:02.25 bitrate=35417.7kbits/s speed=0.0508x    frame=  191 fps=4.2 q=31.0 size=    9728kB time=00:00:02.30 bitrate=34647.7kbits/s speed=0.0511x    frame=  194 fps=4.3 q=31.0 size=    9984kB time=00:00:02.35 bitrate=34803.0kbits/s speed=0.0515x    frame=  197 fps=4.3 q=31.0 size=   10240kB time=00:00:02.40 bitrate=34951.7kbits/s speed=0.0519x    frame=  200 fps=4.3 q=31.0 size=   10496kB time=00:00:02.45 bitrate=35094.4kbits/s speed=0.0522x    frame=  203 fps=4.3 q=31.0 size=   10752kB time=00:00:02.50 bitrate=35231.4kbits/s speed=0.0525x    frame=  206 fps=4.3 q=31.0 size=   11008kB time=00:00:02.55 bitrate=35363.0kbits/s speed=0.0529x    frame=  209 fps=4.3 q=31.0 size=   11264kB time=00:00:02.60 bitrate=35489.5kbits/s speed=0.0532x    frame=  212 fps=4.3 q=31.0 size=   11520kB time=00:00:02.65 bitrate=35611.3kbits/s speed=0.0535x    frame=  215 fps=4.3 q=31.0 size=   11520kB time=00:00:02.70 bitrate=34951.8kbits/s speed=0.0538x    frame=  218 fps=4.3 q=31.0 size=   11776kB time=00:00:02.75 bitrate=35078.9kbits/s speed=0.0541x    frame=  221 fps=4.3 q=31.0 size=   12032kB time=00:00:02.80 bitrate=35201.5kbits/s speed=0.0544x    frame=  224 fps=4.3 q=31.0 size=   12288kB time=00:00:02.85 bitrate=35319.8kbits/s speed=0.0546x    frame=  227 fps=4.3 q=31.0 size=   12288kB time=00:00:02.90 bitrate=34710.8kbits/s speed=0.0548x    frame=  230 fps=4.3 q=31.0 size=   12544kB time=00:00:02.95 bitrate=34833.4kbits/s speed=0.055x    frame=  232 fps=4.3 q=31.0 size=   12800kB time=00:00:02.98 bitrate=35147.1kbits/s speed=0.0551x    frame=  234 fps=4.3 q=31.0 size=   13056kB time=00:00:03.01 bitrate=35453.9kbits/s speed=0.0551x    frame=  236 fps=4.3 q=31.0 size=   13056kB time=00:00:03.05 bitrate=35066.5kbits/s speed=0.0552x    frame=  237 fps=4.2 q=31.0 size=   13312kB time=00:00:03.06 bitrate=35559.7kbits/s speed=0.0549x    frame=  239 fps=4.2 q=31.0 size=   13312kB time=00:00:03.10 bitrate=35177.4kbits/s speed=0.055x    frame=  241 fps=4.2 q=31.0 size=   13568kB time=00:00:03.13 bitrate=35472.5kbits/s speed=0.055x    frame=  244 fps=4.2 q=31.0 size=   13824kB time=00:00:03.18 bitrate=35574.1kbits/s speed=0.0552x    frame=  247 fps=4.2 q=31.0 size=   13824kB time=00:00:03.23 bitrate=35024.0kbits/s speed=0.0554x    frame=  250 fps=4.2 q=31.0 size=   14080kB time=00:00:03.28 bitrate=35129.4kbits/s speed=0.0556x    frame=  253 fps=4.2 q=31.0 size=   14336kB time=00:00:03.33 bitrate=35231.6kbits/s speed=0.0559x    frame=  256 fps=4.2 q=31.0 size=   14592kB time=00:00:03.38 bitrate=35330.7kbits/s speed=0.0561x    frame=  259 fps=4.2 q=31.0 size=   14848kB time=00:00:03.43 bitrate=35427.0kbits/s speed=0.0563x    frame=  260 fps=4.2 q=31.0 size=   14848kB time=00:00:03.45 bitrate=35255.9kbits/s speed=0.0558x    frame=  263 fps=4.2 q=31.0 size=   15104kB time=00:00:03.50 bitrate=35351.4kbits/s speed=0.056x    frame=  265 fps=4.2 q=31.0 size=   15360kB time=00:00:03.53 bitrate=35611.4kbits/s speed=0.056x    frame=  268 fps=4.2 q=31.0 size=   15616kB time=00:00:03.58 bitrate=35699.8kbits/s speed=0.0563x    frame=  271 fps=4.2 q=31.0 size=   15616kB time=00:00:03.63 bitrate=35208.5kbits/s speed=0.0565x    frame=  274 fps=4.2 q=31.0 size=   15872kB time=00:00:03.68 bitrate=35299.9kbits/s speed=0.0567x    frame=  277 fps=4.2 q=31.0 size=   16128kB time=00:00:03.73 bitrate=35388.9kbits/s speed=0.0569x    frame=  280 fps=4.2 q=31.0 size=   16384kB time=00:00:03.78 bitrate=35475.5kbits/s speed=0.0571x    frame=  283 fps=4.2 q=31.0 size=   16384kB time=00:00:03.83 bitrate=35012.8kbits/s speed=0.0573x    frame=  286 fps=4.2 q=31.0 size=   16896kB time=00:00:03.88 bitrate=35642.1kbits/s speed=0.0574x    frame=  289 fps=4.2 q=31.0 size=   17152kB time=00:00:03.93 bitrate=35722.2kbits/s speed=0.0577x    frame=  292 fps=4.2 q=31.0 size=   17408kB time=00:00:03.98 bitrate=35800.2kbits/s speed=0.0579x    frame=  295 fps=4.2 q=31.0 size=   17408kB time=00:00:04.03 bitrate=35356.4kbits/s speed=0.0581x    frame=  296 fps=4.2 q=29.0 size=   17664kB time=00:00:04.05 bitrate=35728.8kbits/s speed=0.0573x    frame=  297 fps=4.1 q=31.0 size=   17664kB time=00:00:04.06 bitrate=35582.3kbits/s speed=0.056x    frame=  299 fps=4.1 q=31.0 size=   17664kB time=00:00:04.10 bitrate=35293.0kbits/s speed=0.0561x    frame=  300 fps=3.7 q=-1.0 Lsize=   21998kB time=00:00:04.95 bitrate=36404.9kbits/s speed=0.0612x    
video:21993kB audio:0kB subtitle:0kB other streams:0kB global headers:0kB muxing overhead: 0.020780%
[libx264 @ 0x5578a04b5240] frame I:2     Avg QP:24.68  size:795160
[libx264 @ 0x5578a04b5240] frame P:76    Avg QP:26.68  size:189801
[libx264 @ 0x5578a04b5240] frame B:222   Avg QP:31.81  size: 29303
[libx264 @ 0x5578a04b5240] consecutive B-frames:  1.3%  0.0%  0.0% 98.7%
[libx264 @ 0x5578a04b5240] mb I  I16..4:  9.2% 73.0% 17.8%
[libx264 @ 0x5578a04b5240] mb P  I16..4:  0.3%  1.8%  0.4%  P16..4: 35.3% 18.8% 11.8%  0.0%  0.0%    skip:31.7%
[libx264 @ 0x5578a04b5240] mb B  I16..4:  0.0%  0.0%  0.0%  B16..8: 31.5%  2.0%  0.8%  direct: 1.9%  skip:63.9%  L0:37.4% L1:55.2% BI: 7.4%
[libx264 @ 0x5578a04b5240] 8x8 transform intra:73.5% inter:74.1%
[libx264 @ 0x5578a04b5240] coded y,uvDC,uvAC intra: 83.0% 83.1% 55.6% inter: 11.4% 8.7% 0.7%
[libx264 @ 0x5578a04b5240] i16 v,h,dc,p: 63% 20% 13%  5%
[libx264 @ 0x5578a04b5240] i8 v,h,dc,ddl,ddr,vr,hd,vl,hu: 11% 11% 12% 12%  9%  9%  9% 13% 15%
[libx264 @ 0x5578a04b5240] i4 v,h,dc,ddl,ddr,vr,hd,vl,hu: 15% 13% 11% 11% 11% 10%  9% 11% 10%
[libx264 @ 0x5578a04b5240] i8c dc,h,v,p: 62% 16% 14%  8%
[libx264 @ 0x5578a04b5240] Weighted P-Frames: Y:0.0% UV:0.0%
[libx264 @ 0x5578a04b5240] ref P L0: 64.5% 21.7%  8.9%  4.8%
[libx264 @ 0x5578a04b5240] ref B L0: 96.0%  2.8%  1.1%
[libx264 @ 0x5578a04b5240] ref B L1: 99.1%  0.9%
[libx264 @ 0x5578a04b5240] kb/s:36032.68
	Command being timed: "/usr/bin/ffmpeg -i ../.././Samples/Netflix_Boat_4096x2160_60fps_10bit_420.y4m -c:v libx264 -f mov /home/aleksandr/Pract/Samples/Netflix_Boat_4096x2160_60fps_10bit_420.y4m_tc/output_std3.mov"
	User time (seconds): 179.09
	System time (seconds): 5.15
	Percent of CPU this job got: 226%
	Elapsed (wall clock) time (h:mm:ss or m:ss): 1:21.30
	Average shared text size (kbytes): 0
	Average unshared data size (kbytes): 0
	Average stack size (kbytes): 0
	Average total size (kbytes): 0
	Maximum resident set size (kbytes): 1970948
	Average resident set size (kbytes): 0
	Major (requiring I/O) page faults: 0
	Minor (reclaiming a frame) page faults: 209148
	Voluntary context switches: 20709
	Involuntary context switches: 6201
	Swaps: 0
	File system inputs: 15548928
	File system outputs: 44080
	Socket messages sent: 0
	Socket messages received: 0
	Signals delivered: 0
	Page size (bytes): 4096
	Exit status: 0
